<mxfile host="app.diagrams.net" modified="2024-03-12T15:45:46.909Z" agent="Mozilla/5.0 (Windows NT 10.0; Win64; x64; rv:123.0) Gecko/20100101 Firefox/123.0" etag="6aA2d9lmp96I4948t1mX" version="22.1.16" type="google">
  <diagram id="C5RBs43oDa-KdzZeNtuy" name="Page-1">
    <mxGraphModel grid="1" page="1" gridSize="10" guides="1" tooltips="1" connect="1" arrows="1" fold="1" pageScale="1" pageWidth="827" pageHeight="1169" math="0" shadow="0">
      <root>
        <mxCell id="WIyWlLk6GJQsqaUBKTNV-0" />
        <mxCell id="WIyWlLk6GJQsqaUBKTNV-1" parent="WIyWlLk6GJQsqaUBKTNV-0" />
        <mxCell id="jHBAIsHn4ZDothHORzcK-10" style="edgeStyle=orthogonalEdgeStyle;rounded=0;orthogonalLoop=1;jettySize=auto;html=1;" edge="1" parent="WIyWlLk6GJQsqaUBKTNV-1" source="jHBAIsHn4ZDothHORzcK-12" target="jHBAIsHn4ZDothHORzcK-8">
          <mxGeometry relative="1" as="geometry">
            <mxPoint x="340" y="280" as="targetPoint" />
          </mxGeometry>
        </mxCell>
        <mxCell id="jHBAIsHn4ZDothHORzcK-0" value="" style="rounded=1;whiteSpace=wrap;html=1;" vertex="1" parent="WIyWlLk6GJQsqaUBKTNV-1">
          <mxGeometry x="280" y="160" width="120" height="80" as="geometry" />
        </mxCell>
        <mxCell id="jHBAIsHn4ZDothHORzcK-1" value="&lt;div&gt;Crawler&lt;/div&gt;Instance" style="text;html=1;strokeColor=none;fillColor=none;align=center;verticalAlign=middle;whiteSpace=wrap;rounded=0;" vertex="1" parent="WIyWlLk6GJQsqaUBKTNV-1">
          <mxGeometry x="310" y="185" width="60" height="30" as="geometry" />
        </mxCell>
        <mxCell id="jHBAIsHn4ZDothHORzcK-7" style="edgeStyle=orthogonalEdgeStyle;rounded=0;orthogonalLoop=1;jettySize=auto;html=1;exitX=0.5;exitY=1;exitDx=0;exitDy=0;entryX=0.5;entryY=0;entryDx=0;entryDy=0;" edge="1" parent="WIyWlLk6GJQsqaUBKTNV-1" source="jHBAIsHn4ZDothHORzcK-4" target="jHBAIsHn4ZDothHORzcK-0">
          <mxGeometry relative="1" as="geometry" />
        </mxCell>
        <mxCell id="jHBAIsHn4ZDothHORzcK-41" style="edgeStyle=orthogonalEdgeStyle;rounded=0;orthogonalLoop=1;jettySize=auto;html=1;exitX=0.5;exitY=1;exitDx=0;exitDy=0;" edge="1" parent="WIyWlLk6GJQsqaUBKTNV-1" source="jHBAIsHn4ZDothHORzcK-4" target="jHBAIsHn4ZDothHORzcK-24">
          <mxGeometry relative="1" as="geometry" />
        </mxCell>
        <mxCell id="jHBAIsHn4ZDothHORzcK-42" style="edgeStyle=orthogonalEdgeStyle;rounded=0;orthogonalLoop=1;jettySize=auto;html=1;exitX=0.5;exitY=1;exitDx=0;exitDy=0;entryX=0.5;entryY=0;entryDx=0;entryDy=0;" edge="1" parent="WIyWlLk6GJQsqaUBKTNV-1" source="jHBAIsHn4ZDothHORzcK-4" target="jHBAIsHn4ZDothHORzcK-22">
          <mxGeometry relative="1" as="geometry" />
        </mxCell>
        <mxCell id="jHBAIsHn4ZDothHORzcK-4" value="" style="rounded=1;whiteSpace=wrap;html=1;" vertex="1" parent="WIyWlLk6GJQsqaUBKTNV-1">
          <mxGeometry x="240" y="60" width="200" height="60" as="geometry" />
        </mxCell>
        <mxCell id="jHBAIsHn4ZDothHORzcK-5" value="Wikipedia" style="text;html=1;strokeColor=none;fillColor=none;align=center;verticalAlign=middle;whiteSpace=wrap;rounded=0;" vertex="1" parent="WIyWlLk6GJQsqaUBKTNV-1">
          <mxGeometry x="310" y="75" width="60" height="30" as="geometry" />
        </mxCell>
        <mxCell id="jHBAIsHn4ZDothHORzcK-55" style="edgeStyle=orthogonalEdgeStyle;rounded=0;orthogonalLoop=1;jettySize=auto;html=1;exitX=0;exitY=0.5;exitDx=0;exitDy=0;entryX=0.5;entryY=0;entryDx=0;entryDy=0;" edge="1" parent="WIyWlLk6GJQsqaUBKTNV-1" source="jHBAIsHn4ZDothHORzcK-8" target="jHBAIsHn4ZDothHORzcK-43">
          <mxGeometry relative="1" as="geometry" />
        </mxCell>
        <mxCell id="jHBAIsHn4ZDothHORzcK-56" style="edgeStyle=orthogonalEdgeStyle;rounded=0;orthogonalLoop=1;jettySize=auto;html=1;exitX=1;exitY=0.5;exitDx=0;exitDy=0;entryX=0.5;entryY=0;entryDx=0;entryDy=0;" edge="1" parent="WIyWlLk6GJQsqaUBKTNV-1" source="jHBAIsHn4ZDothHORzcK-8" target="jHBAIsHn4ZDothHORzcK-44">
          <mxGeometry relative="1" as="geometry" />
        </mxCell>
        <mxCell id="jHBAIsHn4ZDothHORzcK-8" value="" style="ellipse;whiteSpace=wrap;html=1;" vertex="1" parent="WIyWlLk6GJQsqaUBKTNV-1">
          <mxGeometry x="280" y="320" width="120" height="80" as="geometry" />
        </mxCell>
        <mxCell id="jHBAIsHn4ZDothHORzcK-9" value="RabbitMQ" style="text;html=1;strokeColor=none;fillColor=none;align=center;verticalAlign=middle;whiteSpace=wrap;rounded=0;" vertex="1" parent="WIyWlLk6GJQsqaUBKTNV-1">
          <mxGeometry x="310" y="345" width="60" height="30" as="geometry" />
        </mxCell>
        <mxCell id="jHBAIsHn4ZDothHORzcK-11" value="" style="edgeStyle=orthogonalEdgeStyle;rounded=0;orthogonalLoop=1;jettySize=auto;html=1;" edge="1" parent="WIyWlLk6GJQsqaUBKTNV-1" source="jHBAIsHn4ZDothHORzcK-0" target="jHBAIsHn4ZDothHORzcK-12">
          <mxGeometry relative="1" as="geometry">
            <mxPoint x="340" y="320" as="targetPoint" />
            <mxPoint x="340" y="240" as="sourcePoint" />
          </mxGeometry>
        </mxCell>
        <mxCell id="jHBAIsHn4ZDothHORzcK-12" value="&lt;div&gt;PrÃ©-processing&lt;/div&gt;(filter urls)" style="text;html=1;strokeColor=none;fillColor=none;align=center;verticalAlign=middle;whiteSpace=wrap;rounded=0;" vertex="1" parent="WIyWlLk6GJQsqaUBKTNV-1">
          <mxGeometry x="290" y="265" width="100" height="30" as="geometry" />
        </mxCell>
        <mxCell id="jHBAIsHn4ZDothHORzcK-28" style="edgeStyle=orthogonalEdgeStyle;rounded=0;orthogonalLoop=1;jettySize=auto;html=1;exitX=0.5;exitY=1;exitDx=0;exitDy=0;entryX=1;entryY=0.5;entryDx=0;entryDy=0;" edge="1" parent="WIyWlLk6GJQsqaUBKTNV-1" source="jHBAIsHn4ZDothHORzcK-22" target="jHBAIsHn4ZDothHORzcK-12">
          <mxGeometry relative="1" as="geometry" />
        </mxCell>
        <mxCell id="jHBAIsHn4ZDothHORzcK-22" value="" style="rounded=1;whiteSpace=wrap;html=1;" vertex="1" parent="WIyWlLk6GJQsqaUBKTNV-1">
          <mxGeometry x="440" y="160" width="120" height="80" as="geometry" />
        </mxCell>
        <mxCell id="jHBAIsHn4ZDothHORzcK-23" value="&lt;div&gt;Crawler&lt;/div&gt;Instance" style="text;html=1;strokeColor=none;fillColor=none;align=center;verticalAlign=middle;whiteSpace=wrap;rounded=0;" vertex="1" parent="WIyWlLk6GJQsqaUBKTNV-1">
          <mxGeometry x="470" y="185" width="60" height="30" as="geometry" />
        </mxCell>
        <mxCell id="jHBAIsHn4ZDothHORzcK-27" style="edgeStyle=orthogonalEdgeStyle;rounded=0;orthogonalLoop=1;jettySize=auto;html=1;exitX=0.5;exitY=1;exitDx=0;exitDy=0;entryX=0;entryY=0.5;entryDx=0;entryDy=0;" edge="1" parent="WIyWlLk6GJQsqaUBKTNV-1" source="jHBAIsHn4ZDothHORzcK-24" target="jHBAIsHn4ZDothHORzcK-12">
          <mxGeometry relative="1" as="geometry" />
        </mxCell>
        <mxCell id="jHBAIsHn4ZDothHORzcK-24" value="" style="rounded=1;whiteSpace=wrap;html=1;" vertex="1" parent="WIyWlLk6GJQsqaUBKTNV-1">
          <mxGeometry x="120" y="160" width="120" height="80" as="geometry" />
        </mxCell>
        <mxCell id="jHBAIsHn4ZDothHORzcK-25" value="&lt;div&gt;Crawler&lt;/div&gt;Instance" style="text;html=1;strokeColor=none;fillColor=none;align=center;verticalAlign=middle;whiteSpace=wrap;rounded=0;" vertex="1" parent="WIyWlLk6GJQsqaUBKTNV-1">
          <mxGeometry x="150" y="185" width="60" height="30" as="geometry" />
        </mxCell>
        <mxCell id="l89USBdByX_qiAXYL0Na-1" value="" style="edgeStyle=orthogonalEdgeStyle;rounded=0;orthogonalLoop=1;jettySize=auto;html=1;" edge="1" parent="WIyWlLk6GJQsqaUBKTNV-1" source="jHBAIsHn4ZDothHORzcK-43" target="l89USBdByX_qiAXYL0Na-0">
          <mxGeometry relative="1" as="geometry" />
        </mxCell>
        <mxCell id="jHBAIsHn4ZDothHORzcK-43" value="" style="rounded=1;whiteSpace=wrap;html=1;" vertex="1" parent="WIyWlLk6GJQsqaUBKTNV-1">
          <mxGeometry x="20" y="410" width="120" height="60" as="geometry" />
        </mxCell>
        <mxCell id="jHBAIsHn4ZDothHORzcK-58" style="edgeStyle=orthogonalEdgeStyle;rounded=0;orthogonalLoop=1;jettySize=auto;html=1;exitX=0.5;exitY=1;exitDx=0;exitDy=0;" edge="1" parent="WIyWlLk6GJQsqaUBKTNV-1" source="jHBAIsHn4ZDothHORzcK-44" target="jHBAIsHn4ZDothHORzcK-57">
          <mxGeometry relative="1" as="geometry" />
        </mxCell>
        <mxCell id="jHBAIsHn4ZDothHORzcK-44" value="" style="rounded=1;whiteSpace=wrap;html=1;" vertex="1" parent="WIyWlLk6GJQsqaUBKTNV-1">
          <mxGeometry x="440" y="400" width="120" height="60" as="geometry" />
        </mxCell>
        <mxCell id="jHBAIsHn4ZDothHORzcK-45" value="Monitoring" style="text;html=1;strokeColor=none;fillColor=none;align=center;verticalAlign=middle;whiteSpace=wrap;rounded=0;" vertex="1" parent="WIyWlLk6GJQsqaUBKTNV-1">
          <mxGeometry x="50" y="425" width="60" height="30" as="geometry" />
        </mxCell>
        <mxCell id="jHBAIsHn4ZDothHORzcK-46" value="Storing" style="text;html=1;strokeColor=none;fillColor=none;align=center;verticalAlign=middle;whiteSpace=wrap;rounded=0;" vertex="1" parent="WIyWlLk6GJQsqaUBKTNV-1">
          <mxGeometry x="470" y="415" width="60" height="30" as="geometry" />
        </mxCell>
        <mxCell id="jHBAIsHn4ZDothHORzcK-57" value="" style="shape=cylinder3;whiteSpace=wrap;html=1;boundedLbl=1;backgroundOutline=1;size=15;" vertex="1" parent="WIyWlLk6GJQsqaUBKTNV-1">
          <mxGeometry x="470" y="495" width="60" height="85" as="geometry" />
        </mxCell>
        <mxCell id="jHBAIsHn4ZDothHORzcK-67" style="edgeStyle=orthogonalEdgeStyle;rounded=0;orthogonalLoop=1;jettySize=auto;html=1;exitX=0;exitY=0.25;exitDx=0;exitDy=0;entryX=1;entryY=0.5;entryDx=0;entryDy=0;" edge="1" parent="WIyWlLk6GJQsqaUBKTNV-1" source="jHBAIsHn4ZDothHORzcK-59" target="jHBAIsHn4ZDothHORzcK-64">
          <mxGeometry relative="1" as="geometry" />
        </mxCell>
        <mxCell id="jHBAIsHn4ZDothHORzcK-59" value="neo4j DB" style="text;html=1;strokeColor=none;fillColor=none;align=center;verticalAlign=middle;whiteSpace=wrap;rounded=0;" vertex="1" parent="WIyWlLk6GJQsqaUBKTNV-1">
          <mxGeometry x="470" y="530" width="60" height="30" as="geometry" />
        </mxCell>
        <mxCell id="jHBAIsHn4ZDothHORzcK-60" value="" style="strokeWidth=2;html=1;shape=mxgraph.flowchart.annotation_2;align=left;labelPosition=right;pointerEvents=1;" vertex="1" parent="WIyWlLk6GJQsqaUBKTNV-1">
          <mxGeometry x="55" y="120" width="50" height="160" as="geometry" />
        </mxCell>
        <mxCell id="jHBAIsHn4ZDothHORzcK-63" style="edgeStyle=orthogonalEdgeStyle;rounded=0;orthogonalLoop=1;jettySize=auto;html=1;exitX=0.5;exitY=1;exitDx=0;exitDy=0;" edge="1" parent="WIyWlLk6GJQsqaUBKTNV-1" source="jHBAIsHn4ZDothHORzcK-61" target="jHBAIsHn4ZDothHORzcK-43">
          <mxGeometry relative="1" as="geometry" />
        </mxCell>
        <mxCell id="jHBAIsHn4ZDothHORzcK-61" value="" style="rounded=1;whiteSpace=wrap;html=1;" vertex="1" parent="WIyWlLk6GJQsqaUBKTNV-1">
          <mxGeometry x="-80" y="170" width="120" height="60" as="geometry" />
        </mxCell>
        <mxCell id="jHBAIsHn4ZDothHORzcK-62" value="Crawler manager" style="text;html=1;strokeColor=none;fillColor=none;align=center;verticalAlign=middle;whiteSpace=wrap;rounded=0;" vertex="1" parent="WIyWlLk6GJQsqaUBKTNV-1">
          <mxGeometry x="-50" y="185" width="60" height="30" as="geometry" />
        </mxCell>
        <mxCell id="l89USBdByX_qiAXYL0Na-2" style="edgeStyle=orthogonalEdgeStyle;rounded=0;orthogonalLoop=1;jettySize=auto;html=1;entryX=1;entryY=0.5;entryDx=0;entryDy=0;" edge="1" parent="WIyWlLk6GJQsqaUBKTNV-1" source="jHBAIsHn4ZDothHORzcK-64" target="l89USBdByX_qiAXYL0Na-0">
          <mxGeometry relative="1" as="geometry" />
        </mxCell>
        <mxCell id="jHBAIsHn4ZDothHORzcK-64" value="" style="rounded=1;whiteSpace=wrap;html=1;" vertex="1" parent="WIyWlLk6GJQsqaUBKTNV-1">
          <mxGeometry x="260" y="507.5" width="120" height="60" as="geometry" />
        </mxCell>
        <mxCell id="jHBAIsHn4ZDothHORzcK-65" value="PathFinder" style="text;html=1;strokeColor=none;fillColor=none;align=center;verticalAlign=middle;whiteSpace=wrap;rounded=0;" vertex="1" parent="WIyWlLk6GJQsqaUBKTNV-1">
          <mxGeometry x="290" y="522.5" width="60" height="30" as="geometry" />
        </mxCell>
        <mxCell id="l89USBdByX_qiAXYL0Na-0" value="" style="rounded=1;whiteSpace=wrap;html=1;" vertex="1" parent="WIyWlLk6GJQsqaUBKTNV-1">
          <mxGeometry x="20" y="507.5" width="120" height="60" as="geometry" />
        </mxCell>
        <mxCell id="l89USBdByX_qiAXYL0Na-3" value="Web&lt;br&gt;application" style="text;html=1;strokeColor=none;fillColor=none;align=center;verticalAlign=middle;whiteSpace=wrap;rounded=0;" vertex="1" parent="WIyWlLk6GJQsqaUBKTNV-1">
          <mxGeometry x="50" y="523" width="60" height="30" as="geometry" />
        </mxCell>
      </root>
    </mxGraphModel>
  </diagram>
</mxfile>
